<svg width="13" height="12" viewBox="0 0 13 12" fill="none" xmlns="http://www.w3.org/2000/svg">
<path d="M4.12181e-09 3.97679L6.29555 7.25102C6.35869 7.28386 6.42882 7.301 6.5 7.301C6.57118 7.301 6.6413 7.28386 6.70445 7.25102L13 3.97738V9.66488C13 10.1554 12.8124 10.6274 12.4755 10.9839C12.1386 11.3405 11.678 11.5546 11.1883 11.5824L11.0795 11.5853H1.92045C1.42992 11.5854 0.957965 11.3977 0.601409 11.0608C0.244853 10.7239 0.0307265 10.2634 0.00295462 9.77361L4.12181e-09 9.66488V3.97679ZM1.92045 0.948975H11.0795C11.5701 0.948942 12.042 1.13662 12.3986 1.47351C12.7551 1.8104 12.9693 2.27095 12.997 2.7607L13 2.86943V2.97816L6.5 6.35816L4.12181e-09 2.97816V2.86943C-3.2114e-05 2.37889 0.187646 1.90694 0.524533 1.55038C0.861421 1.19383 1.32198 0.979701 1.81173 0.951929L1.92045 0.948975Z" fill="#094AEB"/>
</svg>
